<mxfile host="app.diagrams.net" modified="2023-11-30T12:28:25.144Z" agent="Mozilla/5.0 (Windows NT 10.0; Win64; x64) AppleWebKit/537.36 (KHTML, like Gecko) Chrome/119.0.0.0 Safari/537.36 Edg/119.0.0.0" etag="6QlnE6ZtFW3-LSbLVA3_" version="22.1.5" type="device">
  <diagram name="Page-1" id="pcvz0TQhz4ziWDnwecW2">
    <mxGraphModel dx="340" dy="591" grid="1" gridSize="10" guides="1" tooltips="1" connect="1" arrows="1" fold="1" page="0" pageScale="1" pageWidth="850" pageHeight="1100" math="0" shadow="0">
      <root>
        <mxCell id="0" />
        <mxCell id="1" parent="0" />
        <mxCell id="MfLsMU2s4jTyH3MIGrJy-16" value="View and Export Leaderboard" style="text;html=1;align=center;verticalAlign=middle;resizable=0;points=[];autosize=1;strokeColor=none;fillColor=none;" vertex="1" parent="1">
          <mxGeometry x="380" y="-12" width="180" height="30" as="geometry" />
        </mxCell>
        <mxCell id="lUH4j4nkVVLv1yqWPBas-4" style="edgeStyle=orthogonalEdgeStyle;rounded=0;orthogonalLoop=1;jettySize=auto;html=1;exitX=0.5;exitY=0.5;exitDx=0;exitDy=0;exitPerimeter=0;entryX=1;entryY=0.5;entryDx=0;entryDy=0;entryPerimeter=0;" parent="1" source="rBeoKX9VLg877t7Z7hD8-1" edge="1">
          <mxGeometry relative="1" as="geometry">
            <mxPoint x="580" y="-20" as="targetPoint" />
          </mxGeometry>
        </mxCell>
        <mxCell id="rBeoKX9VLg877t7Z7hD8-1" value="Club" style="shape=umlActor;verticalLabelPosition=bottom;verticalAlign=top;html=1;outlineConnect=0;" parent="1" vertex="1">
          <mxGeometry x="620" y="-50" width="30" height="60" as="geometry" />
        </mxCell>
        <mxCell id="lUH4j4nkVVLv1yqWPBas-5" style="edgeStyle=orthogonalEdgeStyle;rounded=0;orthogonalLoop=1;jettySize=auto;html=1;exitX=0.5;exitY=0.5;exitDx=0;exitDy=0;exitPerimeter=0;" parent="1" source="rBeoKX9VLg877t7Z7hD8-4" target="lUH4j4nkVVLv1yqWPBas-3" edge="1">
          <mxGeometry relative="1" as="geometry" />
        </mxCell>
        <mxCell id="rBeoKX9VLg877t7Z7hD8-4" value="Admin" style="shape=umlActor;verticalLabelPosition=bottom;verticalAlign=top;html=1;outlineConnect=0;" parent="1" vertex="1">
          <mxGeometry x="120" y="-50" width="30" height="60" as="geometry" />
        </mxCell>
        <mxCell id="lUH4j4nkVVLv1yqWPBas-31" style="edgeStyle=orthogonalEdgeStyle;rounded=0;orthogonalLoop=1;jettySize=auto;html=1;entryX=0.75;entryY=0;entryDx=0;entryDy=0;" parent="1" source="MfLsMU2s4jTyH3MIGrJy-2" target="lUH4j4nkVVLv1yqWPBas-6" edge="1">
          <mxGeometry relative="1" as="geometry">
            <mxPoint x="550" y="-30" as="sourcePoint" />
            <Array as="points">
              <mxPoint x="385" y="-30" />
            </Array>
          </mxGeometry>
        </mxCell>
        <mxCell id="lUH4j4nkVVLv1yqWPBas-34" style="edgeStyle=orthogonalEdgeStyle;rounded=0;orthogonalLoop=1;jettySize=auto;html=1;exitX=0.047;exitY=0.625;exitDx=0;exitDy=0;exitPerimeter=0;entryX=0.75;entryY=0;entryDx=0;entryDy=0;" parent="1" source="MfLsMU2s4jTyH3MIGrJy-2" target="lUH4j4nkVVLv1yqWPBas-6" edge="1">
          <mxGeometry relative="1" as="geometry">
            <mxPoint x="550" y="-10" as="sourcePoint" />
          </mxGeometry>
        </mxCell>
        <mxCell id="lUH4j4nkVVLv1yqWPBas-21" style="edgeStyle=orthogonalEdgeStyle;rounded=0;orthogonalLoop=1;jettySize=auto;html=1;exitX=0;exitY=0.5;exitDx=0;exitDy=0;entryX=0.5;entryY=0.5;entryDx=0;entryDy=0;entryPerimeter=0;" parent="1" source="lUH4j4nkVVLv1yqWPBas-6" target="rBeoKX9VLg877t7Z7hD8-4" edge="1">
          <mxGeometry relative="1" as="geometry">
            <Array as="points">
              <mxPoint x="90" y="115" />
              <mxPoint x="90" y="-20" />
            </Array>
          </mxGeometry>
        </mxCell>
        <mxCell id="lUH4j4nkVVLv1yqWPBas-22" style="edgeStyle=orthogonalEdgeStyle;rounded=0;orthogonalLoop=1;jettySize=auto;html=1;exitX=0;exitY=0.5;exitDx=0;exitDy=0;entryX=0.5;entryY=0.5;entryDx=0;entryDy=0;entryPerimeter=0;" parent="1" source="lUH4j4nkVVLv1yqWPBas-6" target="rBeoKX9VLg877t7Z7hD8-4" edge="1">
          <mxGeometry relative="1" as="geometry">
            <Array as="points">
              <mxPoint x="70" y="115" />
              <mxPoint x="70" y="-20" />
            </Array>
          </mxGeometry>
        </mxCell>
        <mxCell id="lUH4j4nkVVLv1yqWPBas-37" style="edgeStyle=orthogonalEdgeStyle;rounded=0;orthogonalLoop=1;jettySize=auto;html=1;exitX=1;exitY=0.25;exitDx=0;exitDy=0;entryX=0.5;entryY=0.5;entryDx=0;entryDy=0;entryPerimeter=0;" parent="1" source="lUH4j4nkVVLv1yqWPBas-6" target="rBeoKX9VLg877t7Z7hD8-1" edge="1">
          <mxGeometry relative="1" as="geometry">
            <Array as="points">
              <mxPoint x="670" y="104" />
              <mxPoint x="670" y="-20" />
            </Array>
          </mxGeometry>
        </mxCell>
        <mxCell id="lUH4j4nkVVLv1yqWPBas-83" style="edgeStyle=orthogonalEdgeStyle;rounded=0;orthogonalLoop=1;jettySize=auto;html=1;exitX=0;exitY=0.5;exitDx=0;exitDy=0;entryX=0.5;entryY=0.5;entryDx=0;entryDy=0;entryPerimeter=0;" parent="1" source="lUH4j4nkVVLv1yqWPBas-6" target="rBeoKX9VLg877t7Z7hD8-4" edge="1">
          <mxGeometry relative="1" as="geometry">
            <Array as="points">
              <mxPoint x="50" y="114" />
              <mxPoint x="50" y="-20" />
            </Array>
          </mxGeometry>
        </mxCell>
        <mxCell id="nW4uyQwHuk2Cv3JfGENo-1" style="edgeStyle=orthogonalEdgeStyle;rounded=0;orthogonalLoop=1;jettySize=auto;html=1;exitX=1;exitY=0.5;exitDx=0;exitDy=0;entryX=0.5;entryY=0;entryDx=0;entryDy=0;" parent="1" source="lUH4j4nkVVLv1yqWPBas-6" target="lUH4j4nkVVLv1yqWPBas-50" edge="1">
          <mxGeometry relative="1" as="geometry" />
        </mxCell>
        <mxCell id="CGBRBJM7869cH4wDZd1x-4" style="edgeStyle=orthogonalEdgeStyle;rounded=0;orthogonalLoop=1;jettySize=auto;html=1;exitX=1;exitY=0.5;exitDx=0;exitDy=0;entryX=0.5;entryY=0;entryDx=0;entryDy=0;" parent="1" source="lUH4j4nkVVLv1yqWPBas-6" target="CGBRBJM7869cH4wDZd1x-5" edge="1">
          <mxGeometry relative="1" as="geometry">
            <mxPoint x="595" y="170" as="targetPoint" />
          </mxGeometry>
        </mxCell>
        <mxCell id="lUH4j4nkVVLv1yqWPBas-6" value="" style="image;aspect=fixed;perimeter=ellipsePerimeter;html=1;align=center;shadow=0;dashed=0;spacingTop=3;image=img/lib/active_directory/databases.svg;" parent="1" vertex="1">
          <mxGeometry x="349.5" y="90" width="50" height="49" as="geometry" />
        </mxCell>
        <mxCell id="lUH4j4nkVVLv1yqWPBas-26" value="Scores" style="text;html=1;strokeColor=none;fillColor=none;align=center;verticalAlign=middle;whiteSpace=wrap;rounded=0;rotation=91;" parent="1" vertex="1">
          <mxGeometry x="68" y="30" width="60" height="30" as="geometry" />
        </mxCell>
        <mxCell id="lUH4j4nkVVLv1yqWPBas-28" value="Retrieve Leaderboard" style="text;html=1;strokeColor=none;fillColor=none;align=center;verticalAlign=middle;whiteSpace=wrap;rounded=0;rotation=90;" parent="1" vertex="1">
          <mxGeometry x="12.86" y="31.489999999999995" width="133" height="30" as="geometry" />
        </mxCell>
        <mxCell id="lUH4j4nkVVLv1yqWPBas-38" value="Scored Matches" style="text;html=1;strokeColor=none;fillColor=none;align=center;verticalAlign=middle;whiteSpace=wrap;rounded=0;rotation=-90;" parent="1" vertex="1">
          <mxGeometry x="620" y="30" width="90" height="30" as="geometry" />
        </mxCell>
        <mxCell id="CGBRBJM7869cH4wDZd1x-11" style="edgeStyle=orthogonalEdgeStyle;rounded=0;orthogonalLoop=1;jettySize=auto;html=1;exitX=0.5;exitY=1;exitDx=0;exitDy=0;" parent="1" source="lUH4j4nkVVLv1yqWPBas-50" target="CGBRBJM7869cH4wDZd1x-6" edge="1">
          <mxGeometry relative="1" as="geometry" />
        </mxCell>
        <mxCell id="CGBRBJM7869cH4wDZd1x-24" value="Upload csv file" style="edgeLabel;html=1;align=center;verticalAlign=middle;resizable=0;points=[];" parent="CGBRBJM7869cH4wDZd1x-11" vertex="1" connectable="0">
          <mxGeometry x="-0.3547" relative="1" as="geometry">
            <mxPoint y="1" as="offset" />
          </mxGeometry>
        </mxCell>
        <mxCell id="lUH4j4nkVVLv1yqWPBas-50" value="Export the batting leaderboard as csv files" style="rounded=0;whiteSpace=wrap;html=1;" parent="1" vertex="1">
          <mxGeometry x="401" y="170" width="99" height="50" as="geometry" />
        </mxCell>
        <mxCell id="lUH4j4nkVVLv1yqWPBas-71" value="" style="whiteSpace=wrap;html=1;aspect=fixed;" parent="1" vertex="1">
          <mxGeometry x="550" y="267.5" width="245" height="245" as="geometry" />
        </mxCell>
        <mxCell id="lUH4j4nkVVLv1yqWPBas-76" style="edgeStyle=orthogonalEdgeStyle;rounded=0;orthogonalLoop=1;jettySize=auto;html=1;exitX=0.5;exitY=1;exitDx=0;exitDy=0;" parent="1" source="lUH4j4nkVVLv1yqWPBas-73" target="lUH4j4nkVVLv1yqWPBas-74" edge="1">
          <mxGeometry relative="1" as="geometry" />
        </mxCell>
        <mxCell id="lUH4j4nkVVLv1yqWPBas-73" value="Data Set" style="rounded=0;whiteSpace=wrap;html=1;" parent="1" vertex="1">
          <mxGeometry x="632.5" y="292" width="80" height="29" as="geometry" />
        </mxCell>
        <mxCell id="lUH4j4nkVVLv1yqWPBas-74" value="" style="image;html=1;image=img/lib/clip_art/computers/Data_Filtering_128x128.png" parent="1" vertex="1">
          <mxGeometry x="647.5" y="367" width="50" height="46" as="geometry" />
        </mxCell>
        <mxCell id="lUH4j4nkVVLv1yqWPBas-80" style="edgeStyle=orthogonalEdgeStyle;rounded=0;orthogonalLoop=1;jettySize=auto;html=1;exitX=0.5;exitY=1;exitDx=0;exitDy=0;entryX=0.5;entryY=0;entryDx=0;entryDy=0;" parent="1" source="lUH4j4nkVVLv1yqWPBas-77" target="lUH4j4nkVVLv1yqWPBas-79" edge="1">
          <mxGeometry relative="1" as="geometry" />
        </mxCell>
        <mxCell id="lUH4j4nkVVLv1yqWPBas-77" value="Data Pre-processing&amp;nbsp;" style="text;html=1;strokeColor=none;fillColor=none;align=center;verticalAlign=middle;whiteSpace=wrap;rounded=0;" parent="1" vertex="1">
          <mxGeometry x="642.5" y="411" width="60" height="30" as="geometry" />
        </mxCell>
        <mxCell id="lUH4j4nkVVLv1yqWPBas-79" value="Data Training" style="rounded=0;whiteSpace=wrap;html=1;" parent="1" vertex="1">
          <mxGeometry x="632.5" y="471" width="80" height="29" as="geometry" />
        </mxCell>
        <mxCell id="lUH4j4nkVVLv1yqWPBas-81" value="Model Training" style="text;html=1;align=center;verticalAlign=middle;resizable=0;points=[];autosize=1;strokeColor=none;fillColor=none;" parent="1" vertex="1">
          <mxGeometry x="622.5" y="240" width="100" height="30" as="geometry" />
        </mxCell>
        <mxCell id="lUH4j4nkVVLv1yqWPBas-84" value="&lt;font style=&quot;font-size: 11px;&quot;&gt;Suggested starting eleven&lt;/font&gt;" style="text;html=1;strokeColor=none;fillColor=none;align=center;verticalAlign=middle;whiteSpace=wrap;rounded=0;rotation=90;" parent="1" vertex="1">
          <mxGeometry x="-40" y="31.490000000000002" width="200" height="30" as="geometry" />
        </mxCell>
        <mxCell id="cJmY4QyKxPwRCOxQnAzR-11" value="" style="endArrow=none;html=1;rounded=0;entryX=0.019;entryY=0.868;entryDx=0;entryDy=0;entryPerimeter=0;" parent="1" edge="1" target="MfLsMU2s4jTyH3MIGrJy-2">
          <mxGeometry width="50" height="50" relative="1" as="geometry">
            <mxPoint x="385.5" y="9.520000000000001" as="sourcePoint" />
            <mxPoint x="549.5" y="9.6" as="targetPoint" />
            <Array as="points">
              <mxPoint x="469.5" y="9.82" />
            </Array>
          </mxGeometry>
        </mxCell>
        <mxCell id="CGBRBJM7869cH4wDZd1x-10" style="edgeStyle=orthogonalEdgeStyle;rounded=0;orthogonalLoop=1;jettySize=auto;html=1;exitX=0.5;exitY=1;exitDx=0;exitDy=0;" parent="1" source="CGBRBJM7869cH4wDZd1x-5" target="CGBRBJM7869cH4wDZd1x-7" edge="1">
          <mxGeometry relative="1" as="geometry" />
        </mxCell>
        <mxCell id="CGBRBJM7869cH4wDZd1x-25" value="Upload csv file" style="edgeLabel;html=1;align=center;verticalAlign=middle;resizable=0;points=[];" parent="CGBRBJM7869cH4wDZd1x-10" vertex="1" connectable="0">
          <mxGeometry x="-0.2772" y="-1" relative="1" as="geometry">
            <mxPoint y="-5" as="offset" />
          </mxGeometry>
        </mxCell>
        <mxCell id="CGBRBJM7869cH4wDZd1x-5" value="Export the bowling leaderboard as csv files" style="rounded=0;whiteSpace=wrap;html=1;" parent="1" vertex="1">
          <mxGeometry x="840" y="170" width="110" height="50" as="geometry" />
        </mxCell>
        <mxCell id="CGBRBJM7869cH4wDZd1x-6" value="" style="sketch=0;points=[[0,0,0],[0.25,0,0],[0.5,0,0],[0.75,0,0],[1,0,0],[0,1,0],[0.25,1,0],[0.5,1,0],[0.75,1,0],[1,1,0],[0,0.25,0],[0,0.5,0],[0,0.75,0],[1,0.25,0],[1,0.5,0],[1,0.75,0]];outlineConnect=0;fontColor=#232F3E;fillColor=#01A88D;strokeColor=#ffffff;dashed=0;verticalLabelPosition=bottom;verticalAlign=top;align=center;html=1;fontSize=12;fontStyle=0;aspect=fixed;shape=mxgraph.aws4.resourceIcon;resIcon=mxgraph.aws4.augmented_ai;" parent="1" vertex="1">
          <mxGeometry x="411.5" y="367" width="78" height="78" as="geometry" />
        </mxCell>
        <mxCell id="CGBRBJM7869cH4wDZd1x-7" value="" style="sketch=0;points=[[0,0,0],[0.25,0,0],[0.5,0,0],[0.75,0,0],[1,0,0],[0,1,0],[0.25,1,0],[0.5,1,0],[0.75,1,0],[1,1,0],[0,0.25,0],[0,0.5,0],[0,0.75,0],[1,0.25,0],[1,0.5,0],[1,0.75,0]];outlineConnect=0;fontColor=#232F3E;fillColor=#01A88D;strokeColor=#ffffff;dashed=0;verticalLabelPosition=bottom;verticalAlign=top;align=center;html=1;fontSize=12;fontStyle=0;aspect=fixed;shape=mxgraph.aws4.resourceIcon;resIcon=mxgraph.aws4.augmented_ai;" parent="1" vertex="1">
          <mxGeometry x="856" y="367" width="78" height="78" as="geometry" />
        </mxCell>
        <mxCell id="CGBRBJM7869cH4wDZd1x-8" style="edgeStyle=orthogonalEdgeStyle;rounded=0;orthogonalLoop=1;jettySize=auto;html=1;exitX=0;exitY=0.25;exitDx=0;exitDy=0;entryX=0.5;entryY=0;entryDx=0;entryDy=0;entryPerimeter=0;" parent="1" source="lUH4j4nkVVLv1yqWPBas-71" target="CGBRBJM7869cH4wDZd1x-6" edge="1">
          <mxGeometry relative="1" as="geometry" />
        </mxCell>
        <mxCell id="CGBRBJM7869cH4wDZd1x-9" style="edgeStyle=orthogonalEdgeStyle;rounded=0;orthogonalLoop=1;jettySize=auto;html=1;exitX=1;exitY=0.25;exitDx=0;exitDy=0;entryX=0.5;entryY=0;entryDx=0;entryDy=0;entryPerimeter=0;" parent="1" source="lUH4j4nkVVLv1yqWPBas-71" target="CGBRBJM7869cH4wDZd1x-7" edge="1">
          <mxGeometry relative="1" as="geometry" />
        </mxCell>
        <mxCell id="CGBRBJM7869cH4wDZd1x-17" value="" style="edgeStyle=orthogonalEdgeStyle;rounded=0;orthogonalLoop=1;jettySize=auto;html=1;" parent="1" source="CGBRBJM7869cH4wDZd1x-12" target="CGBRBJM7869cH4wDZd1x-16" edge="1">
          <mxGeometry relative="1" as="geometry" />
        </mxCell>
        <mxCell id="CGBRBJM7869cH4wDZd1x-27" value="Predicted Performance" style="edgeLabel;html=1;align=center;verticalAlign=middle;resizable=0;points=[];" parent="CGBRBJM7869cH4wDZd1x-17" vertex="1" connectable="0">
          <mxGeometry x="-0.146" relative="1" as="geometry">
            <mxPoint y="1" as="offset" />
          </mxGeometry>
        </mxCell>
        <mxCell id="CGBRBJM7869cH4wDZd1x-12" value="Batting Performance &lt;br&gt;Prediction model" style="text;html=1;align=center;verticalAlign=middle;resizable=0;points=[];autosize=1;strokeColor=none;fillColor=none;" parent="1" vertex="1">
          <mxGeometry x="385.5" y="443" width="130" height="40" as="geometry" />
        </mxCell>
        <mxCell id="CGBRBJM7869cH4wDZd1x-19" value="" style="edgeStyle=orthogonalEdgeStyle;rounded=0;orthogonalLoop=1;jettySize=auto;html=1;" parent="1" source="CGBRBJM7869cH4wDZd1x-13" target="CGBRBJM7869cH4wDZd1x-18" edge="1">
          <mxGeometry relative="1" as="geometry" />
        </mxCell>
        <mxCell id="CGBRBJM7869cH4wDZd1x-26" value="Predicted Performance" style="edgeLabel;html=1;align=center;verticalAlign=middle;resizable=0;points=[];" parent="CGBRBJM7869cH4wDZd1x-19" vertex="1" connectable="0">
          <mxGeometry x="-0.1301" y="1" relative="1" as="geometry">
            <mxPoint as="offset" />
          </mxGeometry>
        </mxCell>
        <mxCell id="CGBRBJM7869cH4wDZd1x-13" value="Bowling Performance &lt;br&gt;Prediction model" style="text;html=1;align=center;verticalAlign=middle;resizable=0;points=[];autosize=1;strokeColor=none;fillColor=none;" parent="1" vertex="1">
          <mxGeometry x="825" y="445" width="140" height="40" as="geometry" />
        </mxCell>
        <mxCell id="CGBRBJM7869cH4wDZd1x-14" value="Trained Model" style="text;html=1;align=center;verticalAlign=middle;resizable=0;points=[];autosize=1;strokeColor=none;fillColor=none;" parent="1" vertex="1">
          <mxGeometry x="450" y="300" width="100" height="30" as="geometry" />
        </mxCell>
        <mxCell id="CGBRBJM7869cH4wDZd1x-15" value="Trained Model" style="text;html=1;align=center;verticalAlign=middle;resizable=0;points=[];autosize=1;strokeColor=none;fillColor=none;" parent="1" vertex="1">
          <mxGeometry x="795" y="300" width="100" height="30" as="geometry" />
        </mxCell>
        <mxCell id="CGBRBJM7869cH4wDZd1x-21" style="edgeStyle=orthogonalEdgeStyle;rounded=0;orthogonalLoop=1;jettySize=auto;html=1;exitX=1;exitY=0.5;exitDx=0;exitDy=0;entryX=0.481;entryY=-0.001;entryDx=0;entryDy=0;entryPerimeter=0;" parent="1" source="CGBRBJM7869cH4wDZd1x-16" target="CGBRBJM7869cH4wDZd1x-20" edge="1">
          <mxGeometry relative="1" as="geometry" />
        </mxCell>
        <mxCell id="CGBRBJM7869cH4wDZd1x-16" value="Top 6 predicted high performers for the next match" style="whiteSpace=wrap;html=1;" parent="1" vertex="1">
          <mxGeometry x="390.5" y="553" width="120" height="60" as="geometry" />
        </mxCell>
        <mxCell id="CGBRBJM7869cH4wDZd1x-22" style="edgeStyle=orthogonalEdgeStyle;rounded=0;orthogonalLoop=1;jettySize=auto;html=1;exitX=0;exitY=0.5;exitDx=0;exitDy=0;" parent="1" source="CGBRBJM7869cH4wDZd1x-18" edge="1">
          <mxGeometry relative="1" as="geometry">
            <mxPoint x="670" y="640" as="targetPoint" />
          </mxGeometry>
        </mxCell>
        <mxCell id="CGBRBJM7869cH4wDZd1x-18" value="Top 5 predicted high performers for the next match" style="whiteSpace=wrap;html=1;" parent="1" vertex="1">
          <mxGeometry x="835" y="553" width="120" height="60" as="geometry" />
        </mxCell>
        <mxCell id="CGBRBJM7869cH4wDZd1x-23" style="edgeStyle=orthogonalEdgeStyle;rounded=0;orthogonalLoop=1;jettySize=auto;html=1;exitX=0;exitY=0.5;exitDx=0;exitDy=0;entryX=0.5;entryY=1;entryDx=0;entryDy=0;" parent="1" source="CGBRBJM7869cH4wDZd1x-20" target="lUH4j4nkVVLv1yqWPBas-6" edge="1">
          <mxGeometry relative="1" as="geometry" />
        </mxCell>
        <mxCell id="CGBRBJM7869cH4wDZd1x-28" value="Predicted Starting Eleven" style="edgeLabel;html=1;align=center;verticalAlign=middle;resizable=0;points=[];" parent="CGBRBJM7869cH4wDZd1x-23" vertex="1" connectable="0">
          <mxGeometry x="0.5401" relative="1" as="geometry">
            <mxPoint as="offset" />
          </mxGeometry>
        </mxCell>
        <mxCell id="CGBRBJM7869cH4wDZd1x-20" value="Combined list to make a starting eleven" style="rounded=0;whiteSpace=wrap;html=1;" parent="1" vertex="1">
          <mxGeometry x="612.5" y="640" width="120" height="60" as="geometry" />
        </mxCell>
        <mxCell id="MfLsMU2s4jTyH3MIGrJy-4" style="edgeStyle=orthogonalEdgeStyle;rounded=0;orthogonalLoop=1;jettySize=auto;html=1;exitX=0.061;exitY=0.128;exitDx=0;exitDy=0;exitPerimeter=0;entryX=0.75;entryY=0;entryDx=0;entryDy=0;" edge="1" parent="1" source="MfLsMU2s4jTyH3MIGrJy-2" target="lUH4j4nkVVLv1yqWPBas-6">
          <mxGeometry relative="1" as="geometry">
            <Array as="points">
              <mxPoint x="540" y="-50" />
              <mxPoint x="386" y="-50" />
            </Array>
          </mxGeometry>
        </mxCell>
        <mxCell id="MfLsMU2s4jTyH3MIGrJy-2" value="Login" style="html=1;whiteSpace=wrap;strokeColor=none;fillColor=#0079D6;labelPosition=center;verticalLabelPosition=middle;verticalAlign=top;align=center;fontSize=12;outlineConnect=0;spacingTop=-6;fontColor=#FFFFFF;sketch=0;shape=mxgraph.sitemap.login;" vertex="1" parent="1">
          <mxGeometry x="552" y="-60" width="40" height="80" as="geometry" />
        </mxCell>
        <mxCell id="MfLsMU2s4jTyH3MIGrJy-7" value="" style="endArrow=classic;html=1;rounded=0;entryX=0.25;entryY=0;entryDx=0;entryDy=0;exitX=0.97;exitY=0.874;exitDx=0;exitDy=0;exitPerimeter=0;" edge="1" parent="1" source="lUH4j4nkVVLv1yqWPBas-3" target="lUH4j4nkVVLv1yqWPBas-6">
          <mxGeometry width="50" height="50" relative="1" as="geometry">
            <mxPoint x="210" y="10" as="sourcePoint" />
            <mxPoint x="330" y="-20" as="targetPoint" />
            <Array as="points">
              <mxPoint x="363" y="10" />
            </Array>
          </mxGeometry>
        </mxCell>
        <mxCell id="MfLsMU2s4jTyH3MIGrJy-8" value="" style="endArrow=classic;html=1;rounded=0;entryX=0.25;entryY=0;entryDx=0;entryDy=0;exitX=0.75;exitY=0.625;exitDx=0;exitDy=0;exitPerimeter=0;" edge="1" parent="1" source="lUH4j4nkVVLv1yqWPBas-3" target="lUH4j4nkVVLv1yqWPBas-6">
          <mxGeometry width="50" height="50" relative="1" as="geometry">
            <mxPoint x="210" y="-10" as="sourcePoint" />
            <mxPoint x="363" y="73" as="targetPoint" />
            <Array as="points">
              <mxPoint x="363" y="-10" />
            </Array>
          </mxGeometry>
        </mxCell>
        <mxCell id="MfLsMU2s4jTyH3MIGrJy-9" value="" style="endArrow=classic;html=1;rounded=0;entryX=0.25;entryY=0;entryDx=0;entryDy=0;exitX=1;exitY=0.375;exitDx=0;exitDy=0;exitPerimeter=0;" edge="1" parent="1" source="lUH4j4nkVVLv1yqWPBas-3" target="lUH4j4nkVVLv1yqWPBas-6">
          <mxGeometry width="50" height="50" relative="1" as="geometry">
            <mxPoint x="210" y="-30" as="sourcePoint" />
            <mxPoint x="363" y="53" as="targetPoint" />
            <Array as="points">
              <mxPoint x="363" y="-30" />
            </Array>
          </mxGeometry>
        </mxCell>
        <mxCell id="MfLsMU2s4jTyH3MIGrJy-10" value="" style="endArrow=classic;html=1;rounded=0;entryX=0.25;entryY=0;entryDx=0;entryDy=0;exitX=0.928;exitY=0.125;exitDx=0;exitDy=0;exitPerimeter=0;" edge="1" parent="1" source="lUH4j4nkVVLv1yqWPBas-3" target="lUH4j4nkVVLv1yqWPBas-6">
          <mxGeometry width="50" height="50" relative="1" as="geometry">
            <mxPoint x="210" y="-50" as="sourcePoint" />
            <mxPoint x="363" y="33" as="targetPoint" />
            <Array as="points">
              <mxPoint x="363" y="-50" />
            </Array>
          </mxGeometry>
        </mxCell>
        <mxCell id="lUH4j4nkVVLv1yqWPBas-3" value="Login" style="html=1;whiteSpace=wrap;strokeColor=none;fillColor=#0079D6;labelPosition=center;verticalLabelPosition=middle;verticalAlign=top;align=center;fontSize=12;outlineConnect=0;spacingTop=-6;fontColor=#FFFFFF;sketch=0;shape=mxgraph.sitemap.login;" parent="1" vertex="1">
          <mxGeometry x="160" y="-60" width="40" height="80" as="geometry" />
        </mxCell>
        <mxCell id="MfLsMU2s4jTyH3MIGrJy-11" value="Add Clubs" style="text;html=1;align=center;verticalAlign=middle;resizable=0;points=[];autosize=1;strokeColor=none;fillColor=none;" vertex="1" parent="1">
          <mxGeometry x="220" y="-74" width="80" height="30" as="geometry" />
        </mxCell>
        <mxCell id="MfLsMU2s4jTyH3MIGrJy-13" value="View Clubs" style="text;html=1;strokeColor=none;fillColor=none;align=center;verticalAlign=middle;whiteSpace=wrap;rounded=0;" vertex="1" parent="1">
          <mxGeometry x="225" y="-54" width="70" height="30" as="geometry" />
        </mxCell>
        <mxCell id="MfLsMU2s4jTyH3MIGrJy-14" value="Create Matches" style="text;html=1;strokeColor=none;fillColor=none;align=center;verticalAlign=middle;whiteSpace=wrap;rounded=0;" vertex="1" parent="1">
          <mxGeometry x="215" y="-35" width="90" height="30" as="geometry" />
        </mxCell>
        <mxCell id="MfLsMU2s4jTyH3MIGrJy-15" value="View and Export Leaderboard" style="text;html=1;align=center;verticalAlign=middle;resizable=0;points=[];autosize=1;strokeColor=none;fillColor=none;" vertex="1" parent="1">
          <mxGeometry x="190" y="-12" width="180" height="30" as="geometry" />
        </mxCell>
        <mxCell id="MfLsMU2s4jTyH3MIGrJy-17" value="Add Players" style="text;html=1;strokeColor=none;fillColor=none;align=center;verticalAlign=middle;whiteSpace=wrap;rounded=0;" vertex="1" parent="1">
          <mxGeometry x="440" y="-74" width="70" height="30" as="geometry" />
        </mxCell>
        <mxCell id="MfLsMU2s4jTyH3MIGrJy-18" value="View Players" style="text;html=1;strokeColor=none;fillColor=none;align=center;verticalAlign=middle;whiteSpace=wrap;rounded=0;" vertex="1" parent="1">
          <mxGeometry x="435" y="-54" width="80" height="30" as="geometry" />
        </mxCell>
        <mxCell id="MfLsMU2s4jTyH3MIGrJy-19" value="Score Matches" style="text;html=1;strokeColor=none;fillColor=none;align=center;verticalAlign=middle;whiteSpace=wrap;rounded=0;" vertex="1" parent="1">
          <mxGeometry x="432.5" y="-35" width="85" height="30" as="geometry" />
        </mxCell>
      </root>
    </mxGraphModel>
  </diagram>
</mxfile>
